<?xml version="1.0" standalone="no"?><!DOCTYPE svg PUBLIC "-//W3C//DTD SVG 1.1//EN"
  "http://www.w3.org/Graphics/SVG/1.1/DTD/svg11.dtd">
<svg class="icon" width="64" height="64" viewBox="0 0 1024 1024" version="1.1"
     xmlns="http://www.w3.org/2000/svg">
  <path
        d="M976 768l-16 0 0-208c0-61.76-50.24-112-112-112l-272 0 0-128 16 0c26.4 0 48-21.6 48-48l0-160c0-26.4-21.6-48-48-48l-160 0c-26.4 0-48 21.6-48 48l0 160c0 26.4 21.6 48 48 48l16 0 0 128-272 0c-61.76 0-112 50.24-112 112l0 208-16 0c-26.4 0-48 21.6-48 48l0 160c0 26.4 21.6 48 48 48l160 0c26.4 0 48-21.6 48-48l0-160c0-26.4-21.6-48-48-48l-16 0 0-192 256 0 0 192-16 0c-26.4 0-48 21.6-48 48l0 160c0 26.4 21.6 48 48 48l160 0c26.4 0 48-21.6 48-48l0-160c0-26.4-21.6-48-48-48l-16 0 0-192 256 0 0 192-16 0c-26.4 0-48 21.6-48 48l0 160c0 26.4 21.6 48 48 48l160 0c26.4 0 48-21.6 48-48l0-160c0-26.4-21.6-48-48-48zM192 960l-128 0 0-128 128 0 0 128zM576 960l-128 0 0-128 128 0 0 128zM448 256l0-128 128 0 0 128-128 0zM960 960l-128 0 0-128 128 0 0 128z"/>
</svg>
